<svg width="16" height="17" viewBox="0 0 16 17" fill="none" xmlns="http://www.w3.org/2000/svg">
<path d="M15.4829 6.13406L10.6864 5.40408L8.54222 0.852135C8.48366 0.727506 8.38731 0.626615 8.2683 0.565289C7.96981 0.410986 7.6071 0.539572 7.45786 0.852135L5.3137 5.40408L0.517213 6.13406C0.384974 6.15384 0.26407 6.21912 0.171503 6.31803C0.0595945 6.43848 -0.0020722 6.60053 5.31712e-05 6.76856C0.00217854 6.9366 0.0679221 7.09688 0.182838 7.21418L3.65316 10.7572L2.83328 15.7602C2.81405 15.8766 2.82635 15.9963 2.86878 16.1057C2.91121 16.2151 2.98207 16.3099 3.07333 16.3794C3.16459 16.4488 3.27259 16.49 3.38509 16.4984C3.4976 16.5068 3.6101 16.482 3.70984 16.4269L8.00004 14.0649L12.2902 16.4269C12.4074 16.4922 12.5434 16.5139 12.6737 16.4902C13.0024 16.4308 13.2235 16.1044 13.1668 15.7602L12.3469 10.7572L15.8172 7.21418C15.9117 7.11725 15.974 6.99064 15.9929 6.85216C16.0439 6.50597 15.8135 6.18549 15.4829 6.13406V6.13406Z" fill="#FADB14"/>
</svg>
