<svg width="36" height="36" viewBox="0 0 36 36" fill="none" xmlns="http://www.w3.org/2000/svg">
<path d="M18 27.3001C21.3137 27.3001 24 24.6138 24 21.3C24 17.9863 21.3137 15.3 18 15.3C14.6863 15.3 12 17.9863 12 21.3C12 24.6138 14.6863 27.3001 18 27.3001Z" stroke="#223355" stroke-width="2.5" stroke-miterlimit="10" stroke-linecap="round" stroke-linejoin="round"/>
<path d="M15.6602 21.45L16.6352 22.425C16.9202 22.71 17.3852 22.71 17.6702 22.44L20.3402 19.98" stroke="#223355" stroke-width="2.5" stroke-linecap="round" stroke-linejoin="round"/>
<path d="M12.0002 33H24.0002C30.0302 33 31.1102 30.585 31.4252 27.645L32.5502 15.645C32.9552 11.985 31.9052 9 25.5002 9H10.5002C4.09523 9 3.04523 11.985 3.45023 15.645L4.57523 27.645C4.89023 30.585 5.97023 33 12.0002 33Z" stroke="#223355" stroke-width="2.5" stroke-miterlimit="10" stroke-linecap="round" stroke-linejoin="round"/>
<path d="M12 9V7.8C12 5.145 12 3 16.8 3H19.2C24 3 24 5.145 24 7.8V9" stroke="#223355" stroke-width="2.5" stroke-miterlimit="10" stroke-linecap="round" stroke-linejoin="round"/>
<path d="M32.4751 16.5C29.8801 18.39 27.0001 19.71 24.0151 20.46" stroke="#223355" stroke-width="2.5" stroke-miterlimit="10" stroke-linecap="round" stroke-linejoin="round"/>
<path d="M3.93018 16.905C6.43518 18.615 9.16518 19.83 12.0002 20.52" stroke="#223355" stroke-width="2.5" stroke-miterlimit="10" stroke-linecap="round" stroke-linejoin="round"/>
</svg>
