<svg width="20" height="21" viewBox="0 0 20 21" fill="none" xmlns="http://www.w3.org/2000/svg">
<path fill-rule="evenodd" clip-rule="evenodd" d="M10 18.3401C14.4183 18.3401 18 14.7584 18 10.3401C18 5.92181 14.4183 2.34009 10 2.34009C5.58172 2.34009 2 5.92181 2 10.3401C2 14.7584 5.58172 18.3401 10 18.3401ZM13.7071 9.0472C14.0976 8.65667 14.0976 8.02351 13.7071 7.63298C13.3166 7.24246 12.6834 7.24246 12.2929 7.63298L9 10.9259L7.70711 9.63298C7.31658 9.24246 6.68342 9.24246 6.29289 9.63298C5.90237 10.0235 5.90237 10.6567 6.29289 11.0472L8.29289 13.0472C8.68342 13.4377 9.31658 13.4377 9.70711 13.0472L13.7071 9.0472Z" fill="white"/>
</svg>
